<svg width="100" height="32" viewBox="0 0 100 32" fill="none" xmlns="http://www.w3.org/2000/svg">
<path d="M22.6276 16C22.6276 24.2843 18.7858 31 14.0467 31C9.30755 31 5.46573 24.2843 5.46573 16C5.46573 7.71573 9.30755 1 14.0467 1C18.7858 1 22.6276 7.71573 22.6276 16Z" stroke="#474747" stroke-width="1.5"/>
<path d="M18.4133 24.4076C11.6255 28.5669 4.16789 28.3448 1.75623 23.9115C-0.655423 19.4782 2.89215 12.5126 9.67995 8.35334C16.4678 4.19407 23.9254 4.41619 26.337 8.84946C28.7487 13.2827 25.2011 20.2484 18.4133 24.4076Z" stroke="#474747" stroke-width="1.5"/>
<path d="M18.4134 8.35329C25.2012 12.5126 28.7487 19.4782 26.3371 23.9114C23.9254 28.3447 16.4678 28.5668 9.67997 24.4076C2.89217 20.2483 -0.655402 13.2827 1.75625 8.84941C4.16791 4.41615 11.6255 4.19402 18.4134 8.35329Z" stroke="#474747" stroke-width="1.5"/>
<ellipse cx="14.0467" cy="16.5173" rx="4.01435" ry="4.13793" stroke="#474747"/>
<text x="38" y="23" font-family="'Inter', 'Segoe UI', system-ui, -apple-system, sans-serif" font-size="19" font-weight="700" fill="#474747">Jabez</text>
</svg>
